<svg width="47" height="25" viewBox="0 0 47 25" fill="none" xmlns="http://www.w3.org/2000/svg">
<path d="M4.76086 14.3286C4.27422 14.3286 3.81075 14.2359 3.37045 14.0505C2.94174 13.8536 2.56517 13.5987 2.24074 13.2858C1.91632 12.9614 1.66141 12.5848 1.47602 12.1561C1.29063 11.7158 1.19794 11.2523 1.19794 10.7657V3.63986C1.19794 3.15321 1.29063 2.69554 1.47602 2.26683C1.66141 1.82653 1.91632 1.44996 2.24074 1.13712C2.56517 0.812695 2.94174 0.557786 3.37045 0.372399C3.81075 0.175424 4.27422 0.076937 4.76086 0.076937H16.8574C17.3441 0.076937 17.8017 0.175424 18.2304 0.372399C18.6707 0.557786 19.0531 0.812695 19.3775 1.13712C19.702 1.44996 19.9569 1.82653 20.1422 2.26683C20.3276 2.69554 20.4203 3.15321 20.4203 3.63986V6.85518H16.8574V3.63986H4.76086V10.7657H16.8574C17.3441 10.7657 17.8017 10.8584 18.2304 11.0438C18.6707 11.2292 19.0531 11.4841 19.3775 11.8085C19.702 12.1329 19.9569 12.5153 20.1422 12.9556C20.3276 13.3843 20.4203 13.842 20.4203 14.3286V21.4371C20.4203 21.9237 20.3276 22.3872 20.1422 22.8275C19.9569 23.2562 19.702 23.6328 19.3775 23.9572C19.0531 24.2816 18.6707 24.5365 18.2304 24.7219C17.8017 24.9073 17.3441 25 16.8574 25H4.41326C3.92661 25 3.46314 24.9073 3.02285 24.7219C2.59414 24.5365 2.21757 24.2816 1.89314 23.9572C1.56871 23.6328 1.31381 23.2562 1.12842 22.8275C0.94303 22.3872 0.850336 21.9237 0.850336 21.4371V18.2391H4.41326V21.4371H16.8574V14.3286H4.76086ZM26.851 25V0.076937H40.4943C44.5265 0.076937 46.5426 2.09882 46.5426 6.14259V9.68813C46.5426 13.7319 44.5265 15.7538 40.4943 15.7538H30.4139V25H26.851ZM30.4139 12.1909H40.3032C41.2533 12.1909 41.9369 11.9823 42.354 11.5652C42.7711 11.1481 42.9797 10.4644 42.9797 9.51433V6.31639C42.9797 5.36628 42.7711 4.68266 42.354 4.26554C41.9369 3.84842 41.2533 3.63986 40.3032 3.63986H30.4139V12.1909Z" fill="url(#paint0_linear_45_31)"/>
<defs>
<linearGradient id="paint0_linear_45_31" x1="95.6547" y1="8.86018" x2="-7.41325" y2="7.89308" gradientUnits="userSpaceOnUse">
<stop stop-color="#00ABB3"/>
<stop offset="1" stop-color="#02B8BF"/>
</linearGradient>
</defs>
</svg>
